<?xml version="1.0" encoding="UTF-8" standalone="no"?>
<!DOCTYPE svg PUBLIC "-//W3C//DTD SVG 1.1//EN" "http://www.w3.org/Graphics/SVG/1.1/DTD/svg11.dtd">
<svg width="1025px" height="1025px" version="1.1" xmlns="http://www.w3.org/2000/svg" xmlns:xlink="http://www.w3.org/1999/xlink" xml:space="preserve" xmlns:serif="http://www.serif.com/" style="fill-rule:evenodd;clip-rule:evenodd;stroke-linejoin:round;stroke-miterlimit:2;">
    <g transform="matrix(1,0,0,1,-2446,-1220)">
        <g id="fmt-logo-mono-transparent" serif:id="fmt-logo-mono+transparent" transform="matrix(1,0,0,1,2446.36,1220.43)">
            <rect x="0" y="0" width="1024" height="1024" style="fill:none;"/>
            <g transform="matrix(-0.384349,0.102986,-0.102986,-0.384349,638.947,882.078)">
                <path d="M824.769,273.885C824.769,246.125 802.265,223.622 774.506,223.622C690.061,223.622 521.345,223.622 443.66,223.622C419.848,223.622 399.304,240.331 394.452,263.644C373.133,366.078 316.953,636.025 298.126,726.484C296.745,733.12 298.801,740.004 303.593,744.797C308.386,749.59 315.271,751.645 321.906,750.264C412.366,731.438 682.313,675.257 784.747,653.939C808.059,649.087 824.769,628.542 824.769,604.73C824.769,527.045 824.769,358.33 824.769,273.885Z" style="fill:#fff;"/>
            </g>
            <g transform="matrix(-0.384349,0.102986,-0.102986,-0.384349,1058.91,769.55)">
                <path d="M833.098,263.644C828.246,240.331 807.701,223.622 783.889,223.622C706.205,223.622 537.489,223.622 453.044,223.622C425.285,223.622 402.781,246.125 402.781,273.885C402.781,358.33 402.781,527.045 402.781,604.73C402.781,628.542 419.49,649.087 442.803,653.939C545.237,675.257 815.184,731.438 905.643,750.264C912.279,751.645 919.164,749.59 923.956,744.797C928.749,740.004 930.804,733.12 929.423,726.484C910.597,636.025 854.416,366.078 833.098,263.644Z" style="fill:#fff;"/>
            </g>
            <g transform="matrix(-0.384349,0.102986,-0.102986,-0.384349,526.419,462.118)">
                <path d="M824.769,264.501C824.769,240.689 808.059,220.144 784.747,215.293C682.313,193.974 412.366,137.793 321.906,118.967C315.271,117.586 308.386,119.642 303.593,124.434C298.801,129.227 296.745,136.112 298.126,142.747C316.953,233.206 373.133,503.154 394.452,605.588C399.304,628.9 419.848,645.609 443.66,645.609C521.345,645.609 690.061,645.609 774.506,645.609C802.265,645.609 824.769,623.106 824.769,595.346L824.769,264.501Z" style="fill:#fff;"/>
            </g>
            <g transform="matrix(-0.384349,0.102986,-0.102986,-0.384349,946.379,349.59)">
                <path d="M929.423,142.747C930.804,136.112 928.749,129.227 923.956,124.434C919.164,119.642 912.279,117.586 905.643,118.967C815.184,137.793 545.237,193.974 442.803,215.293C419.49,220.144 402.781,240.689 402.781,264.501C402.781,342.186 402.781,510.901 402.781,595.346C402.781,623.106 425.285,645.609 453.044,645.609L783.889,645.609C807.701,645.609 828.246,628.9 833.098,605.588C854.416,503.154 910.597,233.206 929.423,142.747Z" style="fill:#fff;"/>
            </g>
            <g transform="matrix(0.62865,-0.168446,0.157439,0.587571,80.3425,307.709)">
                <path d="M437.288,520.933C442.989,519.664 447.075,514.288 447.075,508.057C447.075,501.827 442.989,496.451 437.288,495.182C364.748,479.03 243.871,452.114 194.343,441.086C188.91,439.876 183.257,441.349 178.952,445.095C174.647,448.841 172.148,454.462 172.148,460.399C172.148,486.926 172.148,529.189 172.148,555.716C172.148,561.653 174.647,567.274 178.952,571.02C183.257,574.766 188.91,576.239 194.343,575.029C243.871,564.001 364.748,537.085 437.288,520.933Z" style="fill:#fff;"/>
            </g>
            <g transform="matrix(-0.62865,0.168446,-0.157439,-0.587571,943.657,716.291)">
                <path d="M437.288,520.933C442.989,519.664 447.075,514.288 447.075,508.057C447.075,501.827 442.989,496.451 437.288,495.182C364.748,479.03 243.871,452.114 194.343,441.086C188.91,439.876 183.257,441.349 178.952,445.095C174.647,448.841 172.148,454.462 172.148,460.399C172.148,486.926 172.148,529.189 172.148,555.716C172.148,561.653 174.647,567.274 178.952,571.02C183.257,574.766 188.91,576.239 194.343,575.029C243.871,564.001 364.748,537.085 437.288,520.933Z" style="fill:#fff;"/>
            </g>
            <g transform="matrix(0.168446,0.62865,-0.587571,0.157439,716.291,80.3425)">
                <path d="M437.288,520.933C442.989,519.664 447.075,514.288 447.075,508.057C447.075,501.827 442.989,496.451 437.288,495.182C364.748,479.03 243.871,452.114 194.343,441.086C188.91,439.876 183.257,441.349 178.952,445.095C174.647,448.841 172.148,454.462 172.148,460.399C172.148,486.926 172.148,529.189 172.148,555.716C172.148,561.653 174.647,567.274 178.952,571.02C183.257,574.766 188.91,576.239 194.343,575.029C243.871,564.001 364.748,537.085 437.288,520.933Z" style="fill:#fff;"/>
            </g>
            <g transform="matrix(-0.168446,-0.62865,0.587571,-0.157439,307.709,943.657)">
                <path d="M437.288,520.933C442.989,519.664 447.075,514.288 447.075,508.057C447.075,501.827 442.989,496.451 437.288,495.182C364.748,479.03 243.871,452.114 194.343,441.086C188.91,439.876 183.257,441.349 178.952,445.095C174.647,448.841 172.148,454.462 172.148,460.399C172.148,486.926 172.148,529.189 172.148,555.716C172.148,561.653 174.647,567.274 178.952,571.02C183.257,574.766 188.91,576.239 194.343,575.029C243.871,564.001 364.748,537.085 437.288,520.933Z" style="fill:#fff;"/>
            </g>
        </g>
    </g>
</svg>